HIERARCHY
ROOT Hips
{
  OFFSET 16.3052 96.4407 -7.85431
  CHANNELS 6 Xposition Yposition Zposition Zrotation Xrotation Yrotation
  JOINT Chest
  {
    OFFSET 0 10.5691 -1.07959
    CHANNELS 6 Xposition Yposition Zposition Zrotation Xrotation Yrotation
    JOINT Chest2
    {
      OFFSET 0 11.6675 1.08235
      CHANNELS 6 Xposition Yposition Zposition Zrotation Xrotation Yrotation
      JOINT Chest3
      {
        OFFSET 0 10.5876 0
        CHANNELS 6 Xposition Yposition Zposition Zrotation Xrotation Yrotation
        JOINT Chest4
        {
          OFFSET 0 10.5876 0
          CHANNELS 6 Xposition Yposition Zposition Zrotation Xrotation Yrotation
          JOINT Neck
          {
            OFFSET 0 14.88 0
            CHANNELS 6 Xposition Yposition Zposition Zrotation Xrotation Yrotation
            JOINT Head
            {
              OFFSET 0 9.61466 2.16553
              CHANNELS 6 Xposition Yposition Zposition Zrotation Xrotation Yrotation
              End Site
              {
                OFFSET 0 0 0
              }
            }
          }
          JOINT RightCollar
          {
            OFFSET -3.23953 8.30385 0
            CHANNELS 6 Xposition Yposition Zposition Zrotation Xrotation Yrotation
            JOINT RightShoulder
            {
              OFFSET -15.1725 0 0
              CHANNELS 6 Xposition Yposition Zposition Zrotation Xrotation Yrotation
              JOINT RightElbow
              {
                OFFSET -32.4113 0 0
                CHANNELS 6 Xposition Yposition Zposition Zrotation Xrotation Yrotation
                JOINT RightWrist
                {
                  OFFSET -26.4919 0 1.0813
                  CHANNELS 6 Xposition Yposition Zposition Zrotation Xrotation Yrotation
                  End Site
                  {
                    OFFSET 0 0 0
                  }
                }
              }
            }
          }
          JOINT LeftCollar
          {
            OFFSET 3.23953 8.30385 0
            CHANNELS 6 Xposition Yposition Zposition Zrotation Xrotation Yrotation
            JOINT LeftShoulder
            {
              OFFSET 15.1725 0 0
              CHANNELS 6 Xposition Yposition Zposition Zrotation Xrotation Yrotation
              JOINT LeftElbow
              {
                OFFSET 32.4113 0 0
                CHANNELS 6 Xposition Yposition Zposition Zrotation Xrotation Yrotation
                JOINT LeftWrist
                {
                  OFFSET 26.4919 0 1.0813
                  CHANNELS 6 Xposition Yposition Zposition Zrotation Xrotation Yrotation
                  End Site
                  {
                    OFFSET 0 0 0
                  }
                }
              }
            }
          }
        }
      }
    }
  }
  JOINT RightHip
  {
    OFFSET -8.63674 0.00547028 0
    CHANNELS 6 Xposition Yposition Zposition Zrotation Xrotation Yrotation
    JOINT RightKnee
    {
      OFFSET 5.48981e-005 -44.4933 -2.13963
      CHANNELS 6 Xposition Yposition Zposition Zrotation Xrotation Yrotation
      JOINT RightAnkle
      {
        OFFSET 0 -43.4408 -3.54051
        CHANNELS 6 Xposition Yposition Zposition Zrotation Xrotation Yrotation
        JOINT RightToe
        {
          OFFSET 0 -8.39271 19.1252
          CHANNELS 6 Xposition Yposition Zposition Zrotation Xrotation Yrotation
          End Site
          {
            OFFSET 0 0 0
          }
        }
      }
    }
  }
  JOINT LeftHip
  {
    OFFSET 8.63674 0.00547028 0
    CHANNELS 6 Xposition Yposition Zposition Zrotation Xrotation Yrotation
    JOINT LeftKnee
    {
      OFFSET 0 -44.4933 -2.13963
      CHANNELS 6 Xposition Yposition Zposition Zrotation Xrotation Yrotation
      JOINT LeftAnkle
      {
        OFFSET 0 -43.4407 -3.54051
        CHANNELS 6 Xposition Yposition Zposition Zrotation Xrotation Yrotation
        JOINT LeftToe
        {
          OFFSET 0 -8.39272 19.1252
          CHANNELS 6 Xposition Yposition Zposition Zrotation Xrotation Yrotation
          End Site
          {
            OFFSET 0 0 0
          }
        }
      }
    }
  }
}
MOTION
Frames:	7
Frame Time:	0.0333333
-88.2837 83.2858 183.083 -5.2391 -20.4578 -162.701 0 10.5691 -1.07959 0.650945 3.49562 -0.387668 0 11.6675 1.08235 1.32935 6.98668 -0.817499 -2.84217e-014 10.5876 3.91926e-007 1.32934 6.9867 -0.817499 0 10.5876 3.91926e-007 1.32935 6.98669 -0.817497 4.02965e-006 14.88 7.90862e-006 -35.2781 -4.25775 -12.266 4.53816e-007 9.61472 2.16553 38.8676 -26.0002 -22.0537 -3.23953 8.30385 0 -3.18055e-015 -9.54166e-015 -1.59028e-015 -15.1725 -4.76837e-006 3.07386e-007 56.0878 9.43344 17.4979 -32.4113 3.54577e-006 -5.86142e-007 -10.3603 9.45001 51.2777 -26.4919 2.06041e-006 1.0813 -19.3606 -6.20403 33.5228 3.23953 8.30385 0 -3.18055e-015 -9.54166e-015 -1.59028e-015 15.1725 -4.76837e-006 -1.59996e-006 -62.8765 26.8345 -5.90227 32.4113 -9.38672e-006 -4.44002e-006 40.7668 6.05065 -58.7309 26.4919 -8.67291e-007 1.0813 -10.8531 5.11884 -48.7054 -8.63674 0.00547028 1.90735e-006 -2.71379 -36.8016 -4.65891 6.59482e-006 -44.4932 -2.1456 0.0712887 63.3712 5.413 -1.1277e-006 -43.4408 -3.54051 -13.1294 -24.1904 7.53521 -4.74446e-006 -8.39271 19.1252 1.19607 -10.6162 -10.6 8.63674 0.00547028 -1.90735e-006 4.74042 -15.256 6.06156 -0.00112311 -44.4928 -2.14217 -1.9527 50.848 3.48455 7.18448e-007 -43.4407 -3.54051 -13.0196 24.3019 14.526 -1.06817e-006 -8.39272 19.1252 0.59154 -4.58525 5.68904 
-89.0789 83.9503 178.447 -5.86573 -19.9465 -166.365 0 10.5691 -1.07959 0.43949 3.60909 0.0920237 0 11.6675 1.08235 0.875799 7.21878 0.156763 0 10.5876 3.91926e-007 0.875802 7.21878 0.156753 0 10.5876 3.91926e-007 0.8758 7.21875 0.156751 4.02965e-006 14.88 1.10196e-005 -35.1149 -5.3875 -12.6127 4.53816e-007 9.61472 2.16553 38.5057 -25.4964 -22.112 -3.23953 8.30385 0 1.76556e-031 6.36111e-015 -1.59028e-015 -15.1725 -4.76837e-006 3.07386e-007 53.0633 6.78594 24.2361 -32.4113 3.54577e-006 -5.86142e-007 -10.0227 7.63729 52.1748 -26.4919 2.06041e-006 1.0813 -20.1902 -5.97404 30.9397 3.23953 8.30385 -2.84217e-014 1.76556e-031 6.36111e-015 -1.59028e-015 15.1725 -4.76837e-006 -1.59996e-006 -63.9069 19.4225 1.35007 32.4113 -9.38672e-006 -4.44002e-006 30.8491 9.00102 -56.5973 26.4919 -8.67291e-007 1.0813 -14.4485 6.11367 -43.8827 -8.63674 0.00547028 1.90735e-006 -1.37823 -30.8255 -1.44663 6.59482e-006 -44.4932 -2.14562 0.700871 58.3039 5.47537 -1.1277e-006 -43.4408 -3.54051 -12.2886 -24.9499 9.28855 -4.74446e-006 -8.39271 19.1252 2.64109 -8.4429 -11.211 8.63674 0.00547028 -1.90735e-006 6.33914 -24.5273 7.50526 -0.0011199 -44.4928 -2.14218 -10.741 63.1802 7.89061 7.18448e-007 -43.4407 -3.54051 -8.89833 20.6936 15.1666 -1.06817e-006 -8.39272 19.1252 3.33215 -14.0222 7.86672 
-89.8884 84.8448 173.416 -7.55016 -19.317 -169.671 0 10.5691 -1.07959 0.0369197 3.76064 0.588338 0 11.6675 1.08235 0.0351753 7.52147 1.17802 0 10.5876 3.91926e-007 0.0351797 7.52149 1.17802 0 10.5876 3.91926e-007 0.0351753 7.52147 1.17802 4.02965e-006 14.88 1.16972e-005 -33.6621 -7.48794 -14.127 4.53816e-007 9.61472 2.16553 36.548 -23.3598 -23.1124 -3.23953 8.30385 0 -8.82781e-032 -3.18055e-015 -1.59028e-015 -15.1725 -4.76837e-006 3.07386e-007 51.2566 1.07234 30.413 -32.4113 3.54577e-006 -5.86142e-007 -10.9669 7.10283 53.9945 -26.4919 2.06041e-006 1.0813 -22.162 -6.56088 30.8964 3.23953 8.30385 0 -8.82781e-032 -3.18055e-015 -1.59028e-015 15.1725 -4.76837e-006 -1.59996e-006 -63.3339 17.291 8.79232 32.4113 -9.38672e-006 -4.44002e-006 28.4594 8.80081 -56.6372 26.4919 -8.67291e-007 1.0813 -14.5072 5.80444 -41.696 -8.63674 0.00547028 1.90735e-006 -2.43879 -23.6828 0.155521 6.59482e-006 -44.4932 -2.14563 1.19035 51.8368 6.39286 -1.1277e-006 -43.4408 -3.54051 -11.0182 -25.1091 11.3937 -4.74446e-006 -8.39271 19.1252 4.75852 -4.94565 -11.8434 8.63674 0.00547028 -1.90735e-006 8.08425 -33.6707 13.8669 -0.00111669 -44.4928 -2.14219 -15.5433 70.8873 11.9279 7.18448e-007 -43.4407 -3.54051 -4.94135 16.6614 14.6022 -1.06817e-006 -8.39272 19.1252 2.82273 -12.4821 8.51803 
-90.8538 85.858 167.857 -10.1442 -19.7307 -172.055 -2.84217e-014 10.5691 -1.07959 -0.638229 3.78295 1.02913 -2.84217e-014 11.6675 1.08235 -1.34911 7.55357 2.10733 2.84217e-014 10.5876 3.91926e-007 -1.34911 7.55359 2.10733 -2.84217e-014 10.5876 3.91926e-007 -1.34911 7.55358 2.10733 4.02965e-006 14.88 1.05153e-005 -28.9291 -9.58238 -15.6438 4.53816e-007 9.61472 2.16553 33.9414 -21.4998 -23.2084 -3.23953 8.30385 0 1.59028e-015 0 -4.77083e-015 -15.1725 -4.76837e-006 3.07386e-007 50.5599 -3.75801 35.1056 -32.4113 3.54577e-006 -5.86142e-007 -12.0037 5.49675 57.2012 -26.4919 2.06041e-006 1.0813 -24.0593 -6.9707 30.1766 3.23953 8.30385 0 1.59028e-015 0 -4.77083e-015 15.1725 -4.76837e-006 -1.59996e-006 -62.1278 19.4371 15.5766 32.4113 -9.38672e-006 -4.44002e-006 32.2765 7.39738 -56.983 26.4919 -8.67291e-007 1.0813 -14.6388 6.19356 -44.0019 -8.63674 0.00547028 1.90735e-006 -5.92968 -16.9821 -0.174165 6.59482e-006 -44.4932 -2.14565 1.75865 44.4906 8.55312 -1.1277e-006 -43.4408 -3.54051 -6.9774 -22.6507 14.8969 -4.74446e-006 -8.39271 19.1252 6.60799 -0.250585 -11.2487 8.63674 0.00547028 -1.90735e-006 9.08717 -43.7145 22.0934 -0.00111347 -44.4928 -2.1422 -13.9233 73.6392 13.8204 7.18448e-007 -43.4407 -3.54051 1.18539 9.79771 12.8083 -1.06817e-006 -8.39272 19.1252 2.2736 -10.2902 4.0929 
-91.9749 87.0269 161.504 -12.4553 -19.3451 -173.12 0 10.5691 -1.07959 -1.02642 3.59765 1.46111 2.84217e-014 11.6675 1.08235 -2.15097 7.16725 2.99553 0 10.5876 3.91926e-007 -2.15097 7.16725 2.99554 0 10.5876 3.91926e-007 -2.15097 7.16726 2.99553 4.02965e-006 14.88 8.04759e-006 -28.1279 -4.27172 -15.0119 4.53816e-007 9.61472 2.16553 35.9132 -24.8798 -23.0534 -3.23953 8.30385 2.84217e-014 -1.59028e-015 9.54166e-015 9.54166e-015 -15.1725 -4.76837e-006 3.07386e-007 48.5885 -6.9513 34.8652 -32.4113 3.54577e-006 -5.86142e-007 -11.8522 3.48553 59.8656 -26.4919 2.06041e-006 1.0813 -28.3407 -7.86959 28.7673 3.23953 8.30385 0 -1.59028e-015 9.54166e-015 9.54166e-015 15.1725 -4.76837e-006 -1.59996e-006 -64.2535 23.1945 22.722 32.4113 -9.38672e-006 -4.44002e-006 38.2968 6.47648 -57.054 26.4919 -8.67291e-007 1.0813 -12.2673 5.6764 -47.777 -8.63674 0.00547028 1.90735e-006 -10.0921 -9.08506 -2.77427 6.59482e-006 -44.4932 -2.14566 1.46266 36.2072 7.7159 -1.1277e-006 -43.4408 -3.54051 2.9331 -17.1091 23.7397 -4.74446e-006 -8.39271 19.1252 11.2823 7.42022 -13.0717 8.63674 0.00547028 -1.90735e-006 7.66721 -50.8506 23.877 -0.00111024 -44.4928 -2.14221 -16.0558 67.4227 20.9211 7.18448e-007 -43.4407 -3.54051 2.25613 4.79169 7.64915 -1.06817e-006 -8.39272 19.1252 3.15998 -13.5259 7.5632 
-93.0862 88.6073 154.105 -13.9013 -19.0076 -174.039 0 10.5691 -1.07959 -1.33188 3.4155 1.9379 2.84217e-014 11.6675 1.08235 -2.78623 6.78306 3.96544 0 10.5876 3.91926e-007 -2.78623 6.78307 3.96544 0 10.5876 3.91926e-007 -2.78623 6.78306 3.96543 4.02965e-006 14.88 4.86792e-006 -27.2174 -2.83251 -15.6104 4.53816e-007 9.61472 2.16553 36.2567 -24.8762 -23.7687 -3.23953 8.30385 0 0 9.54166e-015 -0 -15.1725 -4.76837e-006 3.07386e-007 47.6219 -8.42604 32.7868 -32.4113 3.54577e-006 -5.86142e-007 -11.039 1.37423 61.6479 -26.4919 2.06041e-006 1.0813 -32.238 -8.43035 26.8863 3.23953 8.30385 2.84217e-014 0 9.54166e-015 -0 15.1725 -4.76837e-006 -1.59996e-006 -66.8161 25.5742 27.6514 32.4113 -9.38672e-006 -4.44002e-006 39.4592 3.3415 -57.3072 26.4919 -8.67291e-007 1.0813 -12.6553 5.64391 -46.1982 -8.63674 0.00547028 1.90735e-006 -12.8199 -2.1764 -4.59781 6.59482e-006 -44.4932 -2.14568 1.11422 27.4593 8.25654 -1.1277e-006 -43.4408 -3.54051 13.2572 -1.42841 24.3113 -4.74446e-006 -8.39271 19.1252 14.4477 16.6582 -12.1523 8.63674 0.00547028 -1.90735e-006 4.44845 -54.083 18.8116 -0.00110701 -44.4928 -2.14222 -21.2224 54.9431 23.2728 7.18448e-007 -43.4407 -3.54051 -0.105234 1.76589 0.473329 -1.06817e-006 -8.39272 19.1252 4.73767 -17.9726 11.0302 
-94.257 89.7655 145.91 -13.6028 -18.0195 -174.578 1.42109e-014 10.5691 -1.07959 -1.47242 3.29352 2.37748 2.84217e-014 11.6675 1.08235 -3.08823 6.52186 4.8509 0 10.5876 3.91926e-007 -3.08822 6.52188 4.8509 0 10.5876 3.91926e-007 -3.08823 6.52187 4.8509 4.02965e-006 14.88 1.55004e-006 -23.9604 -0.397774 -16.6826 4.53816e-007 9.61472 2.16553 34.8595 -27.1462 -23.7958 -3.23953 8.30385 -2.84217e-014 1.76556e-031 3.18055e-015 -3.18055e-015 -15.1725 -4.76837e-006 3.07386e-007 46.5957 -5.89225 29.1872 -32.4113 3.54577e-006 -5.86142e-007 -15.2974 1.54173 62.9767 -26.4919 2.06041e-006 1.0813 -30.4462 -9.17641 31.1649 3.23953 8.30385 0 1.76556e-031 3.18055e-015 -3.18055e-015 15.1725 -4.76837e-006 -1.59996e-006 -69.0941 25.7121 29.8968 32.4113 -9.38672e-006 -4.44002e-006 41.218 2.89977 -57.3948 26.4919 -8.67291e-007 1.0813 -10.4684 4.67389 -46.2539 -8.63674 0.00547028 1.90735e-006 -13.1473 4.08734 -3.64208 6.59482e-006 -44.4932 -2.14569 -0.0700847 16.9828 9.19294 -1.1277e-006 -43.4408 -3.54051 30.8018 26.1353 14.9263 -4.74446e-006 -8.39271 19.1252 18.5381 20.2762 -15.5953 8.63674 0.00547028 -1.90735e-006 1.79787 -53.3347 14.3512 -0.00110376 -44.4928 -2.14222 -20.4769 42.4318 20.9203 7.18448e-007 -43.4407 -3.54051 -2.04883 -3.02992 -7.3333 -1.06817e-006 -8.39272 19.1252 5.27621 -19.9693 8.73192 
